<?xml version="1.0" encoding="UTF-8" standalone="no"?>
<!DOCTYPE svg PUBLIC "-//W3C//DTD SVG 1.1//EN" "http://www.w3.org/Graphics/SVG/1.1/DTD/svg11.dtd">
<svg width="100%" height="100%" viewBox="0 0 240 69" version="1.1" xmlns="http://www.w3.org/2000/svg" xmlns:xlink="http://www.w3.org/1999/xlink" xml:space="preserve" xmlns:serif="http://www.serif.com/" style="fill-rule:evenodd;clip-rule:evenodd;stroke-linejoin:round;stroke-miterlimit:2;">
    <g transform="matrix(1,0,0,1,0,152.086)">
        <g transform="matrix(1,0,0,1,93.6593,-98.6403)">
            <text x="1.4px" y="14.72px" style="font-family:'Mulish-Regular_ExtraLight', 'Mulish';font-size:20px;fill:rgb(230,230,230);">SPRE<tspan x="52.22px " y="14.72px ">A</tspan>DSHEE<tspan x="132.88px " y="14.72px ">T</tspan></text>
        </g>
        <g transform="matrix(1,0,0,1,-15.642,-152.085)">
            <g id="path2071" transform="matrix(1,0,0,1,-55.458,0)">
                <path d="M75.9,44.3L71.1,44.3L89.7,1.2L94,1.2L112.5,44.3L107.6,44.3L102.8,33L80.6,33L75.9,44.3ZM82.3,29L101.3,29L91.8,6.1L82.3,29Z" style="fill:rgb(230,230,230);fill-rule:nonzero;"/>
            </g>
            <g id="path2077" transform="matrix(1,0,0,1,-116.444,0)">
                <path d="M257.5,22.8C257.515,25.946 256.938,29.067 255.8,32C254.785,34.694 253.218,37.146 251.2,39.2C249.226,41.244 246.84,42.846 244.2,43.9C241.404,45.029 238.415,45.606 235.4,45.6C232.384,45.616 229.393,45.038 226.6,43.9C223.943,42.823 221.529,41.225 219.5,39.2C217.515,37.12 215.953,34.675 214.9,32C213.795,29.061 213.252,25.94 213.3,22.8C213.243,19.692 213.786,16.602 214.9,13.7C215.953,11.025 217.515,8.58 219.5,6.5C221.514,4.479 223.888,2.851 226.5,1.7C229.328,0.562 232.351,-0.016 235.4,0C238.417,-0.026 241.409,0.552 244.2,1.7C246.865,2.752 249.259,4.393 251.2,6.5C253.218,8.554 254.785,11.006 255.8,13.7C256.957,16.593 257.534,19.685 257.5,22.8ZM256.1,22.8C256.124,19.931 255.615,17.083 254.6,14.4C253.602,11.856 252.144,9.517 250.3,7.5C248.442,5.526 246.195,3.96 243.7,2.9C238.332,0.634 232.268,0.634 226.9,2.9C224.385,3.924 222.131,5.495 220.3,7.5C218.447,9.51 216.989,11.851 216,14.4C214.985,17.083 214.476,19.931 214.5,22.8C214.485,25.7 214.993,28.58 216,31.3C216.938,33.845 218.403,36.162 220.3,38.1C222.158,40.074 224.405,41.64 226.9,42.7C229.595,43.805 232.488,44.349 235.4,44.3C238.313,44.359 241.207,43.814 243.9,42.7C246.395,41.64 248.642,40.074 250.5,38.1C252.333,36.131 253.76,33.82 254.7,31.3C255.626,28.562 256.099,25.691 256.1,22.8Z" style="fill:rgb(230,230,230);fill-rule:nonzero;"/>
            </g>
            <g id="path2081" transform="matrix(1,0,0,1,-265.772,0)">
                <path d="M330.1,1.2L342.3,1.2C344.322,1.162 346.341,1.398 348.3,1.9C349.956,2.292 351.519,3.006 352.9,4C354.206,4.907 355.243,6.152 355.9,7.6C356.624,9.199 356.967,10.946 356.9,12.7C356.925,14.461 356.549,16.206 355.8,17.8C355.089,19.214 354.062,20.445 352.8,21.4C351.397,22.355 349.841,23.065 348.2,23.5C346.241,24.002 344.222,24.238 342.2,24.2L334.5,24.2L334.5,44.2L330.1,44.2L330.1,1.2ZM334.5,20.6L341.9,20.6C345.4,20.6 348,19.9 349.8,18.6C351.613,17.242 352.628,15.061 352.5,12.8C352.5,10.1 351.6,8.2 349.7,7C347.368,5.644 344.695,4.985 342,5.1L334.6,5.1L334.6,20.6L334.5,20.6Z" style="fill:rgb(230,230,230);fill-rule:nonzero;"/>
            </g>
            <g id="path2089" transform="matrix(1,0,0,1,-259.834,0)">
                <path d="M514.9,22.8C514.915,25.914 514.338,29.002 513.2,31.9C512.15,34.624 510.511,37.083 508.4,39.1C506.371,41.125 503.957,42.723 501.3,43.8C498.472,44.938 495.449,45.516 492.4,45.5C489.32,45.506 486.266,44.929 483.4,43.8C480.743,42.723 478.329,41.125 476.3,39.1C474.252,37.052 472.651,34.6 471.6,31.9C469.334,26.047 469.334,19.553 471.6,13.7C472.652,11.03 474.254,8.611 476.3,6.6C478.351,4.577 480.758,2.949 483.4,1.8C486.263,0.661 489.319,0.084 492.4,0.1C495.45,0.075 498.474,0.652 501.3,1.8C503.994,2.851 506.42,4.491 508.4,6.6C510.423,8.651 512.051,11.058 513.2,13.7C514.347,16.595 514.925,19.686 514.9,22.8ZM510.3,22.8C510.308,20.35 509.903,17.915 509.1,15.6C508.336,13.391 507.147,11.352 505.6,9.6C504.026,7.83 502.079,6.429 499.9,5.5C495.137,3.501 489.763,3.501 485,5.5C482.865,6.457 480.957,7.854 479.4,9.6C477.853,11.352 476.664,13.391 475.9,15.6C474.3,20.266 474.3,25.334 475.9,30C476.664,32.209 477.853,34.248 479.4,36C480.957,37.746 482.865,39.143 485,40.1C487.363,41.133 489.921,41.645 492.5,41.6C495.046,41.645 497.572,41.133 499.9,40.1C502.05,39.119 503.987,37.726 505.6,36C507.182,34.273 508.376,32.227 509.1,30C509.903,27.685 510.308,25.25 510.3,22.8Z" style="fill:rgb(230,230,230);fill-rule:nonzero;"/>
            </g>
            <g id="path2101" transform="matrix(1,0,0,1,-600.676,0)">
                <path d="M751.8,40.4L775,40.4L775,44.3L747.5,44.3L747.5,1.2L751.8,1.2L751.8,40.4Z" style="fill:rgb(230,230,230);fill-rule:nonzero;"/>
            </g>
            <g id="path21011" serif:id="path2101" transform="matrix(1,0,0,1,-564.933,0)">
                <path d="M751.8,40.4L775,40.4L775,44.3L747.5,44.3L747.5,1.2L751.8,1.2L751.8,40.4Z" style="fill:rgb(230,230,230);fill-rule:nonzero;"/>
            </g>
        </g>
    </g>
</svg>
